<svg xmlns="http://www.w3.org/2000/svg" width="180" height="50" viewBox="0 0 180 50">
  <!-- Background shape -->
  <rect x="0" y="5" width="180" height="40" rx="8" fill="#007bff" />
  
  <!-- Text -->
  <text x="90" y="33" font-family="'Segoe UI', Tahoma, Geneva, Verdana, sans-serif" font-size="24" font-weight="bold" fill="white" text-anchor="middle">
    MegaShop
  </text>
  
  <!-- Shopping cart icon -->
  <path d="M40,25 L36,15 L24,15 L20,25 L40,25 Z M24,28 C22.9,28 22,28.9 22,30 C22,31.1 22.9,32 24,32 C25.1,32 26,31.1 26,30 C26,28.9 25.1,28 24,28 Z M36,28 C34.9,28 34,28.9 34,30 C34,31.1 34.9,32 36,32 C37.1,32 38,31.1 38,30 C38,28.9 37.1,28 36,28 Z" fill="white" />
</svg>